<?xml version="1.0" encoding="utf-8"?>
<!-- Generator: Adobe Illustrator 24.0.3, SVG Export Plug-In . SVG Version: 6.00 Build 0)  -->
<svg version="1.1" id="Layer_1" xmlns="http://www.w3.org/2000/svg" xmlns:xlink="http://www.w3.org/1999/xlink" x="0px" y="0px"
	 viewBox="0 0 24 24" style="enable-background:new 0 0 24 24;" xml:space="preserve">
<path d="M8.5,3.9c-4.9,4.2-7.3,7.8-7.3,10.8c0,4.6,3.5,7.5,7.3,7.5s7.3-3,7.3-7.5C15.8,11.7,13.4,8.1,8.5,3.9z M8.5,20.4
	c-3.1,0-5.5-2.4-5.5-5.7c0-2.1,1.8-5,5.5-8.4c3.7,3.4,5.5,6.2,5.5,8.4C14,18.1,11.5,20.4,8.5,20.4z M4.6,14.9c0.3,0,0.6,0.2,0.7,0.6
	c0.4,2,2.1,2.7,3.3,2.6c0.4,0,0.7,0.3,0.7,0.7c0,0.4-0.3,0.7-0.7,0.7c-2,0.1-4.2-1-4.8-3.8C3.9,15.3,4.2,14.9,4.6,14.9z"/>
<polygon points="15.5,7.2 18.1,7.2 18.1,15.7 19.8,15.7 19.8,7.2 22.4,7.2 19,3.8 "/>
<rect x="1.6" y="1.4" width="20.7" height="1.6"/>
</svg>
