<svg id="Layer_1" data-name="Layer 1" xmlns="http://www.w3.org/2000/svg" viewBox="0 0 24 24"><title>setting</title><path d="M8.09,7.54a5.92,5.92,0,1,0,8.36.55A5.92,5.92,0,0,0,8.09,7.54ZM15,15.36A4.48,4.48,0,1,1,15.37,9,4.47,4.47,0,0,1,15,15.36Z"/><path d="M22,12.86a9.3,9.3,0,0,0,0-1.18,10.5,10.5,0,0,0-.1-1.14l-2-.33-.67-1.87,1.32-1.51A9.75,9.75,0,0,0,19.15,5l-1.79.9L15.71,4.78l.18-2a10.52,10.52,0,0,0-2.16-.63L12.8,3.92l-2,.05-1-1.73A9.74,9.74,0,0,0,7.6,3l.29,2L6.31,6.21l-1.84-.8A9.65,9.65,0,0,0,3.16,7.32l1.4,1.43L4,10.66,2,11.1a10.88,10.88,0,0,0,.06,2.31l2,.34.66,1.87L3.41,17.13A9.81,9.81,0,0,0,4.83,19l1.8-.89L8.27,19.2l-.19,2a10.42,10.42,0,0,0,2.23.65l.92-1.79,2-.05,1,1.73A9.91,9.91,0,0,0,16.43,21l-.3-2,1.58-1.22,1.85.79a10.05,10.05,0,0,0,1.3-1.91l-1.41-1.43L20,13.3Zm-5.64,4.07a6.57,6.57,0,1,1,.6-9.27A6.57,6.57,0,0,1,16.33,16.93Z"/></svg>