<?xml version="1.0" encoding="utf-8"?>
<!-- Generator: Adobe Illustrator 24.0.3, SVG Export Plug-In . SVG Version: 6.00 Build 0)  -->
<svg version="1.1" id="Layer_1" xmlns="http://www.w3.org/2000/svg" xmlns:xlink="http://www.w3.org/1999/xlink" x="0px" y="0px"
	 viewBox="0 0 24 24" style="enable-background:new 0 0 24 24;" xml:space="preserve">
<g>
	<path d="M11.5,11.2V4c0-1.9-1.6-3.5-3.5-3.5S4.6,2.1,4.6,4v7.2c-1.3,1-2.1,2.7-2.1,4.4c0,3.1,2.5,5.6,5.6,5.6s5.6-2.5,5.6-5.6
		C13.6,13.8,12.8,12.2,11.5,11.2z M8,19.9c-2.4,0-4.4-2-4.4-4.4c0-1.5,0.8-2.9,2.1-3.7V4c0-1.2,1-2.3,2.3-2.3s2.3,1,2.3,2.3v7.8
		c1.3,0.8,2.1,2.2,2.1,3.7C12.4,17.9,10.4,19.9,8,19.9z"/>
	<path d="M9.5,12.3v-5c0-0.8-0.6-1.4-1.4-1.4c-0.8,0-1.4,0.6-1.4,1.4v5c-1.2,0.6-2.1,1.8-2.1,3.2c0,2,1.6,3.5,3.5,3.5
		s3.5-1.6,3.5-3.5C11.6,14.1,10.7,12.9,9.5,12.3z"/>
</g>
<polygon points="21,17.5 18.4,17.5 18.4,8.9 16.7,8.9 16.7,17.5 14.1,17.5 17.5,20.9 "/>
<rect x="1.6" y="21.9" width="20.7" height="1.6"/>
</svg>
