<svg id="Layer_1" data-name="Layer 1" xmlns="http://www.w3.org/2000/svg" viewBox="0 0 12.32 24"><title>temperature2</title><path d="M9.66,12.4V5.2a3.54,3.54,0,0,0-3.5-3.5,3.54,3.54,0,0,0-3.5,3.5v7.2a5.65,5.65,0,0,0-2.1,4.4,5.6,5.6,0,0,0,11.2,0A5.5,5.5,0,0,0,9.66,12.4Zm-3.5,8.7a4.44,4.44,0,0,1-4.4-4.4A4.36,4.36,0,0,1,3.86,13V5.2a2.33,2.33,0,0,1,2.3-2.3,2.26,2.26,0,0,1,2.3,2.3V13a4.36,4.36,0,0,1,2.1,3.7A4.44,4.44,0,0,1,6.16,21.1Z"/><path d="M7.56,13.5v-5a1.37,1.37,0,0,0-1.4-1.4,1.37,1.37,0,0,0-1.4,1.4v5a3.66,3.66,0,0,0-2.1,3.2,3.48,3.48,0,0,0,3.5,3.5,3.54,3.54,0,0,0,3.5-3.5A3.39,3.39,0,0,0,7.56,13.5Z"/></svg>