<svg id="Layer_1" data-name="Layer 1" xmlns="http://www.w3.org/2000/svg" viewBox="0 0 24 24"><title>panorama_wide_angle_select_black_24dp</title><path d="M21,5a46.63,46.63,0,0,0-9-1A47.14,47.14,0,0,0,3,5a23.62,23.62,0,0,0-1,7,23.77,23.77,0,0,0,1,7,46.63,46.63,0,0,0,9,1,47.14,47.14,0,0,0,9-1,23.58,23.58,0,0,0,1-7A23.77,23.77,0,0,0,21,5ZM8.16,13.91a.9.9,0,0,1-.9.9H4.54a.9.9,0,0,1-.9-.9V10.09a.9.9,0,0,1,.9-.9H7.26a.9.9,0,0,1,.9.9Zm6.1,0a.9.9,0,0,1-.9.9H10.64a.9.9,0,0,1-.9-.9V10.09a.9.9,0,0,1,.9-.9h2.72a.9.9,0,0,1,.9.9Zm6.1,0a.9.9,0,0,1-.9.9H16.74a.9.9,0,0,1-.9-.9V10.09a.9.9,0,0,1,.9-.9h2.72a.9.9,0,0,1,.9.9Z"/></svg>