<?xml version="1.0" encoding="utf-8"?>
<!-- Generator: Adobe Illustrator 24.0.3, SVG Export Plug-In . SVG Version: 6.00 Build 0)  -->
<svg version="1.1" id="Layer_1" xmlns="http://www.w3.org/2000/svg" xmlns:xlink="http://www.w3.org/1999/xlink" x="0px" y="0px"
	 viewBox="0 0 24 24" style="enable-background:new 0 0 24 24;" xml:space="preserve">
<g>
	<path d="M11.5,13.6V6.4c0-1.9-1.6-3.5-3.5-3.5S4.6,4.5,4.6,6.4v7.2c-1.3,1-2.1,2.7-2.1,4.4C2.5,21,5,23.5,8,23.5s5.6-2.5,5.6-5.6
		C13.6,16.2,12.8,14.6,11.5,13.6z M8,22.3c-2.4,0-4.4-2-4.4-4.4c0-1.5,0.8-2.9,2.1-3.7V6.4c0-1.2,1-2.3,2.3-2.3s2.3,1,2.3,2.3v7.8
		c1.3,0.8,2.1,2.2,2.1,3.7C12.4,20.3,10.4,22.3,8,22.3z"/>
	<path d="M9.5,14.7v-5C9.5,9,8.8,8.3,8,8.3C7.2,8.3,6.6,9,6.6,9.7v5c-1.2,0.6-2.1,1.8-2.1,3.2c0,2,1.6,3.5,3.5,3.5s3.5-1.6,3.5-3.5
		C11.6,16.5,10.7,15.3,9.5,14.7z"/>
</g>
<polygon points="14.1,6.4 16.7,6.4 16.7,14.9 18.4,14.9 18.4,6.4 21,6.4 17.5,2.9 "/>
<rect x="1.6" y="0.5" width="20.7" height="1.6"/>
</svg>
